<?xml version="1.0" encoding="UTF-8"?>
<svg xmlns="http://www.w3.org/2000/svg" xmlns:xlink="http://www.w3.org/1999/xlink" version="1.1" id="Ebene_1" x="0px" y="0px" width="162px" height="54px" viewBox="0 0 162 54" style="enable-background:new 0 0 162 54;" xml:space="preserve">
<style type="text/css">
	.st0{fill-rule:evenodd;clip-rule:evenodd;fill:#9B0A7D;}
	.st1{fill-rule:evenodd;clip-rule:evenodd;fill:#FFFFFF;}
	.st2{fill:#FFFFFF;}
</style>
<g id="Hintergrund">
	<g>
		<path class="st0" d="M0,0h162v54H0V0z"></path>
		<path class="st1" d="M106.79,0h2.43v38.88h-2.43V0z"></path>
		<path class="st1" d="M52.78,15.12h2.43V54h-2.43V15.12z"></path>
		<path class="st2" d="M28.17,39.15c-7.17,0-12.2-4.97-12.2-12.22c0-6.95,5.33-12.08,12.14-12.08c3.35,0,6.87,0.79,9.06,3.73    l-3.35,3.31c-0.88-1.42-3.04-2.41-5.66-2.41c-3.67,0-6.93,2.86-6.93,7.44c0,4.33,2.71,7.68,7.17,7.68c1.29,0,4.25-0.27,5.99-3.46    l3.62,2.71C35.35,38.19,31.37,39.15,28.17,39.15z"></path>
		<path class="st2" d="M135.11,39.08c-6.89,0-9.73-4.25-9.73-9.51V15.46h5.31v13.66c0,3.62,1.27,5.25,4.46,5.25    c3.16,0,4.19-1.66,4.19-5.25V15.46h5.29v14.1C144.63,34.56,142.03,39.08,135.11,39.08z"></path>
		<path class="st2" d="M87.01,38.83l-2.44-5.39h-7.14l-2.44,5.39h-5.63L81,14.09l11.65,24.75H87.01z M81,25.25l-2.07,4.37h4.13    L81,25.25z"></path>
	</g>
</g>
</svg>
